<svg width="1000" height="260" viewBox="0 0 1000 260" xmlns="http://www.w3.org/2000/svg">
  <defs>
    <filter id="softGlow" x="-40%" y="-40%" width="180%" height="180%">
      <feGaussianBlur in="SourceGraphic" stdDeviation="3"/>
    </filter>
    <clipPath id="typeClip">
      <rect x="44" y="117" width="0" height="20">
        <animate attributeName="width" values="0;510.4;510.4;0;0" keyTimes="0;0.375;0.6875;0.875;1" dur="8.0s" repeatCount="indefinite"/>
      </rect>
    </clipPath>
  </defs>

  <rect width="1000" height="260" fill="#0A0E14"/>
  <line x1="0" y1="30" x2="1000" y2="30" stroke="#5FD068" stroke-width="1" opacity="0.05"/>
<line x1="0" y1="54" x2="1000" y2="54" stroke="#5FD068" stroke-width="1" opacity="0.05"/>
<line x1="0" y1="78" x2="1000" y2="78" stroke="#5FD068" stroke-width="1" opacity="0.05"/>
<line x1="0" y1="102" x2="1000" y2="102" stroke="#5FD068" stroke-width="1" opacity="0.05"/>
<line x1="0" y1="126" x2="1000" y2="126" stroke="#5FD068" stroke-width="1" opacity="0.05"/>
<line x1="0" y1="150" x2="1000" y2="150" stroke="#5FD068" stroke-width="1" opacity="0.05"/>
<line x1="0" y1="174" x2="1000" y2="174" stroke="#5FD068" stroke-width="1" opacity="0.05"/>
  <g opacity="0.10"><line x1="13.2" y1="144.7" x2="13.2" y2="168.0" stroke="#FF6B6B" stroke-width="1"/>
<rect x="7.4" y="151.7" width="11.8" height="16.3" fill="#FF6B6B"/>
<line x1="42.6" y1="140.4" x2="42.6" y2="168.0" stroke="#5FD068" stroke-width="1"/>
<rect x="36.8" y="144.4" width="11.8" height="23.6" fill="#5FD068"/>
<line x1="72.1" y1="139.2" x2="72.1" y2="168.0" stroke="#5FD068" stroke-width="1"/>
<rect x="66.2" y="143.8" width="11.8" height="24.2" fill="#5FD068"/>
<line x1="101.5" y1="144.6" x2="101.5" y2="168.0" stroke="#FF6B6B" stroke-width="1"/>
<rect x="95.6" y="148.9" width="11.8" height="19.1" fill="#FF6B6B"/>
<line x1="130.9" y1="139.7" x2="130.9" y2="168.0" stroke="#5FD068" stroke-width="1"/>
<rect x="125.0" y="147.3" width="11.8" height="20.7" fill="#5FD068"/>
<line x1="160.3" y1="151.3" x2="160.3" y2="168.0" stroke="#FF6B6B" stroke-width="1"/>
<rect x="154.4" y="157.2" width="11.8" height="10.8" fill="#FF6B6B"/>
<line x1="189.7" y1="139.5" x2="189.7" y2="168.0" stroke="#5FD068" stroke-width="1"/>
<rect x="183.8" y="150.9" width="11.8" height="17.1" fill="#5FD068"/>
<line x1="219.1" y1="139.0" x2="219.1" y2="168.0" stroke="#5FD068" stroke-width="1"/>
<rect x="213.2" y="146.1" width="11.8" height="21.9" fill="#5FD068"/>
<line x1="248.5" y1="151.8" x2="248.5" y2="168.0" stroke="#5FD068" stroke-width="1"/>
<rect x="242.6" y="158.2" width="11.8" height="9.8" fill="#5FD068"/>
<line x1="277.9" y1="139.6" x2="277.9" y2="168.0" stroke="#FF6B6B" stroke-width="1"/>
<rect x="272.1" y="146.9" width="11.8" height="21.1" fill="#FF6B6B"/>
<line x1="307.4" y1="149.5" x2="307.4" y2="168.0" stroke="#FF6B6B" stroke-width="1"/>
<rect x="301.5" y="155.2" width="11.8" height="12.8" fill="#FF6B6B"/>
<line x1="336.8" y1="139.8" x2="336.8" y2="168.0" stroke="#5FD068" stroke-width="1"/>
<rect x="330.9" y="145.4" width="11.8" height="22.6" fill="#5FD068"/>
<line x1="366.2" y1="139.7" x2="366.2" y2="168.0" stroke="#FF6B6B" stroke-width="1"/>
<rect x="360.3" y="144.2" width="11.8" height="23.8" fill="#FF6B6B"/>
<line x1="395.6" y1="147.0" x2="395.6" y2="168.0" stroke="#5FD068" stroke-width="1"/>
<rect x="389.7" y="151.1" width="11.8" height="16.9" fill="#5FD068"/>
<line x1="425.0" y1="138.8" x2="425.0" y2="168.0" stroke="#5FD068" stroke-width="1"/>
<rect x="419.1" y="143.7" width="11.8" height="24.3" fill="#5FD068"/>
<line x1="454.4" y1="149.2" x2="454.4" y2="168.0" stroke="#5FD068" stroke-width="1"/>
<rect x="448.5" y="157.8" width="11.8" height="10.2" fill="#5FD068"/>
<line x1="483.8" y1="152.3" x2="483.8" y2="168.0" stroke="#FF6B6B" stroke-width="1"/>
<rect x="477.9" y="156.3" width="11.8" height="11.7" fill="#FF6B6B"/>
<line x1="513.2" y1="146.1" x2="513.2" y2="168.0" stroke="#FF6B6B" stroke-width="1"/>
<rect x="507.4" y="150.3" width="11.8" height="17.7" fill="#FF6B6B"/>
<line x1="542.6" y1="139.7" x2="542.6" y2="168.0" stroke="#5FD068" stroke-width="1"/>
<rect x="536.8" y="151.1" width="11.8" height="16.9" fill="#5FD068"/>
<line x1="572.1" y1="143.7" x2="572.1" y2="168.0" stroke="#FF6B6B" stroke-width="1"/>
<rect x="566.2" y="152.8" width="11.8" height="15.2" fill="#FF6B6B"/>
<line x1="601.5" y1="144.2" x2="601.5" y2="168.0" stroke="#5FD068" stroke-width="1"/>
<rect x="595.6" y="149.6" width="11.8" height="18.4" fill="#5FD068"/>
<line x1="630.9" y1="138.3" x2="630.9" y2="168.0" stroke="#5FD068" stroke-width="1"/>
<rect x="625.0" y="142.8" width="11.8" height="25.2" fill="#5FD068"/>
<line x1="660.3" y1="143.9" x2="660.3" y2="168.0" stroke="#FF6B6B" stroke-width="1"/>
<rect x="654.4" y="149.1" width="11.8" height="18.9" fill="#FF6B6B"/>
<line x1="689.7" y1="130.1" x2="689.7" y2="168.0" stroke="#FF6B6B" stroke-width="1"/>
<rect x="683.8" y="142.1" width="11.8" height="25.9" fill="#FF6B6B"/>
<line x1="719.1" y1="135.7" x2="719.1" y2="168.0" stroke="#FF6B6B" stroke-width="1"/>
<rect x="713.2" y="147.3" width="11.8" height="20.7" fill="#FF6B6B"/>
<line x1="748.5" y1="144.7" x2="748.5" y2="168.0" stroke="#FF6B6B" stroke-width="1"/>
<rect x="742.6" y="149.0" width="11.8" height="19.0" fill="#FF6B6B"/>
<line x1="777.9" y1="139.1" x2="777.9" y2="168.0" stroke="#5FD068" stroke-width="1"/>
<rect x="772.1" y="147.9" width="11.8" height="20.1" fill="#5FD068"/>
<line x1="807.4" y1="151.7" x2="807.4" y2="168.0" stroke="#5FD068" stroke-width="1"/>
<rect x="801.5" y="158.4" width="11.8" height="9.6" fill="#5FD068"/>
<line x1="836.8" y1="141.9" x2="836.8" y2="168.0" stroke="#5FD068" stroke-width="1"/>
<rect x="830.9" y="149.5" width="11.8" height="18.5" fill="#5FD068"/>
<line x1="866.2" y1="133.7" x2="866.2" y2="168.0" stroke="#FF6B6B" stroke-width="1"/>
<rect x="860.3" y="142.3" width="11.8" height="25.7" fill="#FF6B6B"/>
<line x1="895.6" y1="139.0" x2="895.6" y2="168.0" stroke="#5FD068" stroke-width="1"/>
<rect x="889.7" y="145.6" width="11.8" height="22.4" fill="#5FD068"/>
<line x1="925.0" y1="148.6" x2="925.0" y2="168.0" stroke="#FF6B6B" stroke-width="1"/>
<rect x="919.1" y="156.2" width="11.8" height="11.8" fill="#FF6B6B"/>
<line x1="954.4" y1="149.4" x2="954.4" y2="168.0" stroke="#FF6B6B" stroke-width="1"/>
<rect x="948.5" y="158.4" width="11.8" height="9.6" fill="#FF6B6B"/>
<line x1="983.8" y1="141.7" x2="983.8" y2="168.0" stroke="#5FD068" stroke-width="1"/>
<rect x="977.9" y="145.9" width="11.8" height="22.1" fill="#5FD068"/></g>

  <rect x="628" y="14" width="340" height="150" rx="4" fill="none" stroke="#5FD068" opacity="0.35"/>
<text x="642" y="36" font-family="'SF Mono',Consolas,Monaco,monospace" font-size="12" font-weight="700" fill="#7C8797" letter-spacing="1">WATCHLIST</text>
<text x="642" y="60" font-family="'SF Mono',Consolas,Monaco,monospace" font-size="14" font-weight="700" fill="#F2F5F8">AAPL</text>
<text x="720" y="60" font-family="'SF Mono',Consolas,Monaco,monospace" font-size="13" fill="#7C8797">$328.21</text>
<polygon points="836,50 831.5,58.5 840.5,58.5" fill="#5FD068" opacity="1"/>
<text x="850" y="60" font-family="'SF Mono',Consolas,Monaco,monospace" font-size="13" font-weight="700" fill="#5FD068">+8.17%</text>
<path d="M 876.0,54.3 L 880.1,57.8 L 884.2,60.2 L 888.3,62.0 L 892.4,59.9 L 896.5,59.4 L 900.6,59.7 L 904.7,56.6 L 908.8,51.9 L 912.9,55.7 L 917.1,57.1 L 921.2,56.4 L 925.3,56.7 L 929.4,54.2 L 933.5,53.5 L 937.6,49.9 L 941.7,51.9 L 945.8,46.1 L 949.9,46.3 L 954.0,44.0" fill="none" stroke="#5FD068" stroke-width="1.8" stroke-linecap="round" stroke-linejoin="round"/>
<text x="642" y="86" font-family="'SF Mono',Consolas,Monaco,monospace" font-size="14" font-weight="700" fill="#F2F5F8">NVDA</text>
<text x="720" y="86" font-family="'SF Mono',Consolas,Monaco,monospace" font-size="13" fill="#7C8797">$228.45</text>
<polygon points="836,76 831.5,84.5 840.5,84.5" fill="#5FD068" opacity="1"/>
<text x="850" y="86" font-family="'SF Mono',Consolas,Monaco,monospace" font-size="13" font-weight="700" fill="#5FD068">+10.55%</text>
<path d="M 876.0,74.0 L 880.1,79.8 L 884.2,79.9 L 888.3,73.9 L 892.4,72.8 L 896.5,73.0 L 900.6,73.1 L 904.7,77.9 L 908.8,79.8 L 912.9,80.5 L 917.1,82.4 L 921.2,88.0 L 925.3,83.9 L 929.4,86.9 L 933.5,70.4 L 937.6,79.8 L 941.7,76.9 L 945.8,79.9 L 949.9,73.6 L 954.0,70.0" fill="none" stroke="#5FD068" stroke-width="1.8" stroke-linecap="round" stroke-linejoin="round"/>
<text x="642" y="112" font-family="'SF Mono',Consolas,Monaco,monospace" font-size="14" font-weight="700" fill="#F2F5F8">TSLA</text>
<text x="720" y="112" font-family="'SF Mono',Consolas,Monaco,monospace" font-size="13" fill="#7C8797">$376.37</text>
<polygon points="836,102 831.5,110.5 840.5,110.5" fill="#5FD068" opacity="1"/>
<text x="850" y="112" font-family="'SF Mono',Consolas,Monaco,monospace" font-size="13" font-weight="700" fill="#5FD068">+16.85%</text>
<path d="M 876.0,113.6 L 880.1,112.8 L 884.2,112.0 L 888.3,114.0 L 892.4,109.4 L 896.5,108.6 L 900.6,109.7 L 904.7,110.6 L 908.8,105.3 L 912.9,107.5 L 917.1,101.0 L 921.2,106.1 L 925.3,105.6 L 929.4,107.3 L 933.5,103.9 L 937.6,106.2 L 941.7,99.1 L 945.8,103.5 L 949.9,103.1 L 954.0,96.0" fill="none" stroke="#5FD068" stroke-width="1.8" stroke-linecap="round" stroke-linejoin="round"/>
<text x="642" y="138" font-family="'SF Mono',Consolas,Monaco,monospace" font-size="14" font-weight="700" fill="#F2F5F8">MSFT</text>
<text x="720" y="138" font-family="'SF Mono',Consolas,Monaco,monospace" font-size="13" fill="#7C8797">$510.12</text>
<polygon points="836,128 831.5,136.5 840.5,136.5" fill="#5FD068" opacity="1"/>
<text x="850" y="138" font-family="'SF Mono',Consolas,Monaco,monospace" font-size="13" font-weight="700" fill="#5FD068">+4.61%</text>
<path d="M 876.0,129.3 L 880.1,126.1 L 884.2,127.3 L 888.3,133.4 L 892.4,131.0 L 896.5,131.8 L 900.6,140.0 L 904.7,139.3 L 908.8,137.9 L 912.9,139.6 L 917.1,138.4 L 921.2,136.2 L 925.3,133.8 L 929.4,131.3 L 933.5,126.6 L 937.6,122.0 L 941.7,125.4 L 945.8,128.8 L 949.9,131.1 L 954.0,123.8" fill="none" stroke="#5FD068" stroke-width="1.8" stroke-linecap="round" stroke-linejoin="round"/>

  <text x="42" y="92" font-family="'SF Mono',Consolas,Monaco,monospace" font-size="46" font-weight="700" fill="#5FD068" filter="url(#softGlow)" opacity="0.5">KANISHKA SARKAR</text>
  <text x="42" y="92" font-family="'SF Mono',Consolas,Monaco,monospace" font-size="46" font-weight="700" fill="#F2F5F8">
    KANISHKA SARKAR
    <animate attributeName="opacity" values="1;0.92;1" dur="4s" repeatCount="indefinite"/>
  </text>

  <g clip-path="url(#typeClip)">
    <text x="44" y="132" font-family="'SF Mono',Consolas,Monaco,monospace" font-size="16" fill="#7C8797">SOFTWARE ENGINEER  .  QUANT + AI SYSTEMS  .  SYDNEY, AU</text>
  </g>
  <rect y="118" width="9" height="17" fill="#5FD068">
    <animate attributeName="x" values="44;562.4;562.4;44;44" keyTimes="0;0.375;0.6875;0.875;1" dur="8.0s" repeatCount="indefinite"/>
    <animate attributeName="opacity" values="1;1;0;0;1" dur="1.1s" repeatCount="indefinite"/>
  </rect>

  <line x1="0" y1="172" x2="1000" y2="172" stroke="#5FD068" stroke-width="1" opacity="0.25"/>

  <rect x="0" y="190" width="1000" height="70" fill="#05070A"/>
  <line x1="0" y1="190" x2="1000" y2="190" stroke="#5FD068" stroke-width="1.5" opacity="0.5"/>

  <g transform="translate(20,0)">
    <animateTransform attributeName="transform" type="translate" values="20,0;-1720.0,0" dur="38.7s" repeatCount="indefinite"/>
<text x="0.0" y="233" font-family="'SF Mono',Consolas,Monaco,monospace" font-size="15" font-weight="700" fill="#F2F5F8">CARDINAL</text>
<polygon points="80.0,223 75.5,231.5 84.5,231.5" fill="#5FD068" opacity="1"/>
<text x="96.0" y="233" font-family="'SF Mono',Consolas,Monaco,monospace" font-size="15" fill="#7C8797">EQUITY ANALYSIS TERMINAL</text>
<text x="312.0" y="233" font-family="'SF Mono',Consolas,Monaco,monospace" font-size="15" fill="#7C8797" opacity="0.5">      |      </text>
<text x="429.0" y="233" font-family="'SF Mono',Consolas,Monaco,monospace" font-size="15" font-weight="700" fill="#F2F5F8">STRATUM</text>
<polygon points="500.0,223 495.5,231.5 504.5,231.5" fill="#5FD068" opacity="1"/>
<text x="516.0" y="233" font-family="'SF Mono',Consolas,Monaco,monospace" font-size="15" fill="#7C8797">MOMENTUM ENGINE</text>
<text x="651.0" y="233" font-family="'SF Mono',Consolas,Monaco,monospace" font-size="15" fill="#7C8797" opacity="0.5">      |      </text>
<text x="768.0" y="233" font-family="'SF Mono',Consolas,Monaco,monospace" font-size="15" font-weight="700" fill="#F2F5F8">OPE</text>
<circle cx="803.0" cy="228" r="4" fill="#A78BFA" opacity="1"/>
<text x="819.0" y="233" font-family="'SF Mono',Consolas,Monaco,monospace" font-size="15" fill="#7C8797">OPTIONS PRICING</text>
<text x="954.0" y="233" font-family="'SF Mono',Consolas,Monaco,monospace" font-size="15" fill="#7C8797" opacity="0.5">      |      </text>
<text x="1071.0" y="233" font-family="'SF Mono',Consolas,Monaco,monospace" font-size="15" font-weight="700" fill="#F2F5F8">CATTLESCANNER</text>
<polygon points="1196.0,223 1191.5,231.5 1200.5,231.5" fill="#5FD068" opacity="1"/>
<text x="1212.0" y="233" font-family="'SF Mono',Consolas,Monaco,monospace" font-size="15" fill="#7C8797">YOLO11 / CV</text>
<text x="1311.0" y="233" font-family="'SF Mono',Consolas,Monaco,monospace" font-size="15" fill="#7C8797" opacity="0.5">      |      </text>
<text x="1428.0" y="233" font-family="'SF Mono',Consolas,Monaco,monospace" font-size="15" font-weight="700" fill="#F2F5F8">USYD</text>
<circle cx="1472.0" cy="228" r="4" fill="#A78BFA" opacity="1"/>
<text x="1488.0" y="233" font-family="'SF Mono',Consolas,Monaco,monospace" font-size="15" fill="#7C8797">SWE (HONS) 2026</text>
<text x="1740.0" y="233" font-family="'SF Mono',Consolas,Monaco,monospace" font-size="15" font-weight="700" fill="#F2F5F8">CARDINAL</text>
<polygon points="1820.0,223 1815.5,231.5 1824.5,231.5" fill="#5FD068" opacity="1"/>
<text x="1836.0" y="233" font-family="'SF Mono',Consolas,Monaco,monospace" font-size="15" fill="#7C8797">EQUITY ANALYSIS TERMINAL</text>
<text x="2052.0" y="233" font-family="'SF Mono',Consolas,Monaco,monospace" font-size="15" fill="#7C8797" opacity="0.5">      |      </text>
<text x="2169.0" y="233" font-family="'SF Mono',Consolas,Monaco,monospace" font-size="15" font-weight="700" fill="#F2F5F8">STRATUM</text>
<polygon points="2240.0,223 2235.5,231.5 2244.5,231.5" fill="#5FD068" opacity="1"/>
<text x="2256.0" y="233" font-family="'SF Mono',Consolas,Monaco,monospace" font-size="15" fill="#7C8797">MOMENTUM ENGINE</text>
<text x="2391.0" y="233" font-family="'SF Mono',Consolas,Monaco,monospace" font-size="15" fill="#7C8797" opacity="0.5">      |      </text>
<text x="2508.0" y="233" font-family="'SF Mono',Consolas,Monaco,monospace" font-size="15" font-weight="700" fill="#F2F5F8">OPE</text>
<circle cx="2543.0" cy="228" r="4" fill="#A78BFA" opacity="1"/>
<text x="2559.0" y="233" font-family="'SF Mono',Consolas,Monaco,monospace" font-size="15" fill="#7C8797">OPTIONS PRICING</text>
<text x="2694.0" y="233" font-family="'SF Mono',Consolas,Monaco,monospace" font-size="15" fill="#7C8797" opacity="0.5">      |      </text>
<text x="2811.0" y="233" font-family="'SF Mono',Consolas,Monaco,monospace" font-size="15" font-weight="700" fill="#F2F5F8">CATTLESCANNER</text>
<polygon points="2936.0,223 2931.5,231.5 2940.5,231.5" fill="#5FD068" opacity="1"/>
<text x="2952.0" y="233" font-family="'SF Mono',Consolas,Monaco,monospace" font-size="15" fill="#7C8797">YOLO11 / CV</text>
<text x="3051.0" y="233" font-family="'SF Mono',Consolas,Monaco,monospace" font-size="15" fill="#7C8797" opacity="0.5">      |      </text>
<text x="3168.0" y="233" font-family="'SF Mono',Consolas,Monaco,monospace" font-size="15" font-weight="700" fill="#F2F5F8">USYD</text>
<circle cx="3212.0" cy="228" r="4" fill="#A78BFA" opacity="1"/>
<text x="3228.0" y="233" font-family="'SF Mono',Consolas,Monaco,monospace" font-size="15" fill="#7C8797">SWE (HONS) 2026</text>
  </g>
</svg>